<svg width="18" height="18" viewBox="0 0 18 18" fill="none" xmlns="http://www.w3.org/2000/svg">
<path d="M9 0.25C4.16797 0.25 0.25 4.16797 0.25 9C0.25 13.832 4.16797 17.75 9 17.75C13.832 17.75 17.75 13.832 17.75 9C17.75 4.16797 13.832 0.25 9 0.25ZM9.43555 13.2422L9.43945 13.8613C9.43945 13.9473 9.36914 14.0195 9.2832 14.0195H8.72852C8.64258 14.0195 8.57227 13.9492 8.57227 13.8633V13.25C6.83789 13.1211 6.02148 12.1328 5.93359 11.0586C5.92578 10.9668 5.99805 10.8887 6.08984 10.8887H6.99219C7.06836 10.8887 7.13477 10.9434 7.14648 11.0176C7.24609 11.6367 7.72852 12.0996 8.59375 12.2148V9.42773L8.11133 9.30469C7.08984 9.06055 6.11719 8.42383 6.11719 7.10352C6.11719 5.67969 7.19922 4.91406 8.58203 4.7793V4.13477C8.58203 4.04883 8.65234 3.97852 8.73828 3.97852H9.28711C9.37305 3.97852 9.44336 4.04883 9.44336 4.13477V4.77344C10.7813 4.9082 11.7852 5.68945 11.9023 6.90625C11.9121 6.99805 11.8398 7.07813 11.7461 7.07813H10.8691C10.791 7.07813 10.7246 7.01953 10.7148 6.94336C10.6367 6.37305 10.1797 5.9082 9.43555 5.80664V8.42969L9.93164 8.54492C11.1973 8.85742 12.0586 9.46289 12.0586 10.8184C12.0586 12.2891 10.9648 13.1094 9.43555 13.2422ZM7.33203 7.01367C7.33203 7.50977 7.63867 7.89453 8.29883 8.13281C8.39063 8.16992 8.48242 8.19922 8.5918 8.23047V5.80859C7.87109 5.90039 7.33203 6.30469 7.33203 7.01367ZM9.60742 9.6543C9.55273 9.64258 9.49805 9.62891 9.43555 9.61133V12.2227C10.2676 12.1484 10.8418 11.6914 10.8418 10.9258C10.8418 10.3262 10.5312 9.93555 9.60742 9.6543Z" fill="white" fill-opacity="0.3"/>
</svg>
