<svg width="53" height="53" viewBox="0 0 53 53" fill="none" xmlns="http://www.w3.org/2000/svg">
<path d="M26.5 53C33.5282 53 40.2686 50.208 45.2383 45.2383C50.208 40.2686 53 33.5282 53 26.5C53 19.4718 50.208 12.7314 45.2383 7.76167C40.2686 2.79196 33.5282 0 26.5 0C19.4718 0 12.7314 2.79196 7.76167 7.76167C2.79196 12.7314 0 19.4718 0 26.5C0 33.5282 2.79196 40.2686 7.76167 45.2383C12.7314 50.208 19.4718 53 26.5 53V53ZM29.5806 21.8227L26.2681 37.4081C26.0362 38.5343 26.3642 39.1736 27.2751 39.1736C27.9178 39.1736 28.8883 38.9417 29.5475 38.3587L29.256 39.7368C28.3053 40.8829 26.2085 41.7176 24.4032 41.7176C22.0745 41.7176 21.0841 40.3197 21.7267 37.3484L24.1713 25.8607C24.3833 24.8901 24.1912 24.539 23.2206 24.3038L21.7267 24.0355L21.9983 22.7734L29.5839 21.8227H29.5806ZM26.5 18.2188C25.6215 18.2188 24.7789 17.8698 24.1577 17.2485C23.5365 16.6273 23.1875 15.7848 23.1875 14.9062C23.1875 14.0277 23.5365 13.1852 24.1577 12.564C24.7789 11.9427 25.6215 11.5938 26.5 11.5938C27.3785 11.5938 28.2211 11.9427 28.8423 12.564C29.4635 13.1852 29.8125 14.0277 29.8125 14.9062C29.8125 15.7848 29.4635 16.6273 28.8423 17.2485C28.2211 17.8698 27.3785 18.2188 26.5 18.2188V18.2188Z" fill="#259138"/>
</svg>
