<svg width="17" height="15" viewBox="0 0 17 15" fill="none" xmlns="http://www.w3.org/2000/svg">
<path d="M14.8334 3.54167V1.95833C14.8334 1.08512 14.1233 0.375 13.25 0.375H2.95837C1.64896 0.375 0.583374 1.44058 0.583374 2.75V12.25C0.583374 13.9925 2.00362 14.625 2.95837 14.625H14.8334C15.7066 14.625 16.4167 13.9149 16.4167 13.0417V5.125C16.4167 4.25179 15.7066 3.54167 14.8334 3.54167ZM13.25 10.6667H11.6667V7.5H13.25V10.6667ZM2.95837 3.54167C2.75454 3.53255 2.56207 3.44516 2.42105 3.29769C2.28003 3.15022 2.20133 2.95404 2.20133 2.75C2.20133 2.54596 2.28003 2.34978 2.42105 2.20231C2.56207 2.05484 2.75454 1.96745 2.95837 1.95833H13.25V3.54167H2.95837Z" fill="white"/>
</svg>
